<svg xmlns="http://www.w3.org/2000/svg" width="1200" height="1700" viewBox="0 0 1200 1700" role="img" aria-label="Mezar taşlı anma görseli">
  <defs>
    <linearGradient id="ground" x1="0" x2="0" y1="0" y2="1">
      <stop offset="0%" stop-color="#4f5b44" />
      <stop offset="50%" stop-color="#2f3628" />
      <stop offset="100%" stop-color="#1f2419" />
    </linearGradient>
    <linearGradient id="stone" x1="0" x2="0" y1="0" y2="1">
      <stop offset="0%" stop-color="#e5e6e6" />
      <stop offset="100%" stop-color="#b8b9bd" />
    </linearGradient>
  </defs>
  <rect width="1200" height="1700" fill="url(#ground)" />
  <rect x="190" y="520" width="820" height="880" rx="24" fill="#2c2f2b" opacity="0.55" />
  <rect x="210" y="540" width="780" height="840" rx="22" fill="#3a3f38" opacity="0.35" />
  <rect x="260" y="520" width="680" height="880" rx="60" fill="url(#stone)" stroke="#a3a6a9" stroke-width="18" />
  <rect x="300" y="1080" width="600" height="260" rx="24" fill="#d8d9db" stroke="#a3a6a9" stroke-width="12" />
  <path d="M420 650 Q600 480 780 650 Q820 840 600 840 Q380 840 420 650 Z" fill="#d2d3d6" stroke="#a3a6a9" stroke-width="10" />
  <circle cx="600" cy="610" r="88" fill="#c6c7cb" stroke="#9da0a4" stroke-width="8" />
  <path d="M560 640 Q600 590 640 640 Q660 700 540 700 Q520 700 520 690 Q520 670 560 640 Z" fill="#b7b9be" />
  <rect x="360" y="880" width="480" height="360" rx="38" fill="#dfe0e3" stroke="#b6b8bc" stroke-width="12" />
  <text x="600" y="990" font-family="'Inter', 'Segoe UI', sans-serif" font-size="54" font-weight="700" text-anchor="middle" fill="#1f1f1f">BEBEK YÜZLÜ</text>
  <text x="600" y="1058" font-family="'Inter', 'Segoe UI', sans-serif" font-size="54" font-weight="700" text-anchor="middle" fill="#1f1f1f">SERİ KATİL</text>
  <text x="600" y="1138" font-family="'Inter', 'Segoe UI', sans-serif" font-size="42" font-weight="600" text-anchor="middle" fill="#2a2a2a">18.12.2024</text>
  <rect x="300" y="1220" width="600" height="60" rx="10" fill="#bdbec2" opacity="0.75" />
  <path d="M240 1320 C240 1280 320 1260 360 1288 L400 1320 C440 1350 380 1400 320 1398 C280 1396 240 1360 240 1320 Z" fill="#383f34" />
  <path d="M900 1320 C900 1280 980 1260 1020 1288 L1060 1320 C1100 1350 1040 1400 980 1398 C940 1396 900 1360 900 1320 Z" fill="#3f2f22" />
  <text x="600" y="1540" font-family="'Inter', 'Segoe UI', sans-serif" font-size="26" text-anchor="middle" fill="#c9cabf" opacity="0.8">Bu görsel, kullanıcı isteğiyle oluşturulmuş temsili bir mezar taşı arka planıdır.</text>
</svg>
